<mxfile host="Electron" agent="Mozilla/5.0 (Windows NT 10.0; Win64; x64) AppleWebKit/537.36 (KHTML, like Gecko) draw.io/26.0.7 Chrome/128.0.6613.186 Electron/32.2.5 Safari/537.36" version="26.0.7">
  <diagram id="piDafpqhtRUU5qUU-vj8" name="Page-1">
    <mxGraphModel dx="5560" dy="2800" grid="1" gridSize="10" guides="1" tooltips="1" connect="1" arrows="1" fold="1" page="1" pageScale="1" pageWidth="827" pageHeight="1169" math="0" shadow="0">
      <root>
        <mxCell id="0" />
        <mxCell id="1" parent="0" />
        <mxCell id="gXBRPpkTJ4SZdGtCYp4G-240" value="" style="strokeWidth=1;shadow=0;dashed=0;align=left;html=1;shape=mxgraph.mockup.containers.browserWindow;rSize=0;strokeColor2=#008cff;strokeColor3=#c4c4c4;mainText=,;recursiveResize=0;strokeColor=#FFFFFF;fontColor=#FFFFFF;verticalAlign=top;movable=0;resizable=0;rotatable=0;deletable=0;editable=0;locked=1;connectable=0;" parent="1" vertex="1">
          <mxGeometry x="1710" y="470" width="750" height="2240" as="geometry" />
        </mxCell>
        <mxCell id="gXBRPpkTJ4SZdGtCYp4G-241" value="Page 1" style="strokeWidth=1;shadow=0;dashed=0;align=center;html=1;shape=mxgraph.mockup.containers.anchor;fontSize=17;fontColor=#666666;align=left;movable=0;resizable=0;rotatable=0;deletable=0;editable=0;locked=1;connectable=0;" parent="gXBRPpkTJ4SZdGtCYp4G-240" vertex="1">
          <mxGeometry x="60" y="12" width="110" height="26" as="geometry" />
        </mxCell>
        <mxCell id="gXBRPpkTJ4SZdGtCYp4G-242" value="https://www.example.com" style="strokeWidth=1;shadow=0;dashed=0;align=center;html=1;shape=mxgraph.mockup.containers.anchor;rSize=0;fontSize=17;fontColor=#666666;align=left;movable=0;resizable=0;rotatable=0;deletable=0;editable=0;locked=1;connectable=0;" parent="gXBRPpkTJ4SZdGtCYp4G-240" vertex="1">
          <mxGeometry x="130" y="60" width="250" height="26" as="geometry" />
        </mxCell>
        <mxCell id="gXBRPpkTJ4SZdGtCYp4G-243" value="" style="verticalLabelPosition=bottom;shadow=0;dashed=0;align=center;html=1;verticalAlign=top;strokeWidth=1;shape=mxgraph.mockup.containers.videoPlayer;strokeColor=#666666;strokeColor2=#008cff;strokeColor3=#c4c4c4;textColor=#666666;fillColor2=#008cff;barHeight=30;barPos=22.585;fillColor=light-dark(#FFFFFF,#005157);movable=0;resizable=0;rotatable=0;deletable=0;editable=0;locked=1;connectable=0;" parent="gXBRPpkTJ4SZdGtCYp4G-240" vertex="1">
          <mxGeometry y="200" width="750" height="400" as="geometry" />
        </mxCell>
        <mxCell id="gXBRPpkTJ4SZdGtCYp4G-254" value="" style="html=1;verticalLabelPosition=bottom;align=center;labelBackgroundColor=#ffffff;verticalAlign=top;strokeWidth=2;strokeColor=#0080F0;shadow=0;dashed=0;shape=mxgraph.ios7.icons.video_conversation;fontSize=13;fontColor=#0066CC;movable=0;resizable=0;rotatable=0;deletable=0;editable=0;locked=1;connectable=0;" parent="gXBRPpkTJ4SZdGtCYp4G-240" vertex="1">
          <mxGeometry x="260" y="310" width="230" height="130" as="geometry" />
        </mxCell>
        <mxCell id="gXBRPpkTJ4SZdGtCYp4G-255" value="" style="strokeWidth=1;shadow=0;dashed=0;align=center;html=1;shape=mxgraph.mockup.buttons.multiButton;fillColor=#000066;strokeColor=#666666;mainText=;subText=;fontSize=13;fontColor=#0066CC;movable=0;resizable=0;rotatable=0;deletable=0;editable=0;locked=1;connectable=0;" parent="gXBRPpkTJ4SZdGtCYp4G-240" vertex="1">
          <mxGeometry x="50" y="709" width="650" height="412" as="geometry" />
        </mxCell>
        <mxCell id="gXBRPpkTJ4SZdGtCYp4G-256" value="" style="strokeWidth=1;shadow=0;dashed=0;align=center;html=1;shape=mxgraph.mockup.anchor;fontSize=16;fontColor=#ffffff;fontStyle=1;whiteSpace=wrap;movable=0;resizable=0;rotatable=0;deletable=0;editable=0;locked=1;connectable=0;" parent="gXBRPpkTJ4SZdGtCYp4G-255" vertex="1">
          <mxGeometry y="65.92" width="650" height="164.79999999999998" as="geometry" />
        </mxCell>
        <mxCell id="gXBRPpkTJ4SZdGtCYp4G-257" value="" style="strokeWidth=1;shadow=0;dashed=0;align=center;html=1;shape=mxgraph.mockup.anchor;fontSize=12;fontColor=#ffffff;fontStyle=1;whiteSpace=wrap;movable=0;resizable=0;rotatable=0;deletable=0;editable=0;locked=1;connectable=0;" parent="gXBRPpkTJ4SZdGtCYp4G-255" vertex="1">
          <mxGeometry y="247.2" width="650" height="82.39999999999999" as="geometry" />
        </mxCell>
        <mxCell id="gXBRPpkTJ4SZdGtCYp4G-380" value="" style="verticalLabelPosition=bottom;shadow=0;dashed=0;align=center;html=1;verticalAlign=top;strokeWidth=1;shape=mxgraph.mockup.graphics.simpleIcon;strokeColor=#999999;movable=0;resizable=0;rotatable=0;deletable=0;editable=0;locked=1;connectable=0;" parent="gXBRPpkTJ4SZdGtCYp4G-255" vertex="1">
          <mxGeometry x="85" y="112" width="480" height="250" as="geometry" />
        </mxCell>
        <mxCell id="gXBRPpkTJ4SZdGtCYp4G-272" value="&lt;font style=&quot;font-size: 36px;&quot;&gt;&amp;nbsp;&lt;span style=&quot;white-space: pre;&quot;&gt;&#x9;&lt;/span&gt;Movie Name&lt;/font&gt;" style="rounded=0;whiteSpace=wrap;html=1;strokeColor=none;align=left;movable=0;resizable=0;rotatable=0;deletable=0;editable=0;locked=1;connectable=0;" parent="gXBRPpkTJ4SZdGtCYp4G-255" vertex="1">
          <mxGeometry width="650" height="102" as="geometry" />
        </mxCell>
        <mxCell id="gXBRPpkTJ4SZdGtCYp4G-259" value="" style="verticalLabelPosition=bottom;shadow=0;dashed=0;align=center;html=1;verticalAlign=top;strokeWidth=1;shape=mxgraph.mockup.markup.line;strokeColor=#999999;fillColor=#008CFF;fontSize=13;fontColor=#0066CC;movable=0;resizable=0;rotatable=0;deletable=0;editable=0;locked=1;connectable=0;" parent="gXBRPpkTJ4SZdGtCYp4G-240" vertex="1">
          <mxGeometry y="1374" width="750" height="20" as="geometry" />
        </mxCell>
        <mxCell id="gXBRPpkTJ4SZdGtCYp4G-270" value="" style="whiteSpace=wrap;html=1;fillColor=light-dark(#FFFFFF,#4D4D4D);movable=0;resizable=0;rotatable=0;deletable=0;editable=0;locked=1;connectable=0;" parent="gXBRPpkTJ4SZdGtCYp4G-240" vertex="1">
          <mxGeometry y="2000" width="750" height="240" as="geometry" />
        </mxCell>
        <mxCell id="gXBRPpkTJ4SZdGtCYp4G-271" value="&lt;span style=&quot;font-size: 24px;&quot;&gt;Premiere&lt;/span&gt;" style="rounded=0;whiteSpace=wrap;html=1;movable=0;resizable=0;rotatable=0;deletable=0;editable=0;locked=1;connectable=0;" parent="gXBRPpkTJ4SZdGtCYp4G-240" vertex="1">
          <mxGeometry x="210" y="620" width="330" height="60" as="geometry" />
        </mxCell>
        <mxCell id="gXBRPpkTJ4SZdGtCYp4G-273" value="&lt;div&gt;&lt;span style=&quot;font-size: 24px;&quot;&gt;Release date&lt;span style=&quot;white-space: pre;&quot;&gt;&#x9;&lt;/span&gt;&lt;span style=&quot;white-space: pre;&quot;&gt;&#x9;&lt;/span&gt;&lt;span style=&quot;white-space: pre;&quot;&gt;&#x9;&lt;/span&gt;&lt;span style=&quot;white-space: pre;&quot;&gt;&#x9;&lt;/span&gt;&lt;/span&gt;&lt;/div&gt;&lt;div&gt;&lt;br&gt;&lt;/div&gt;&lt;div&gt;&lt;span style=&quot;font-size: 24px;&quot;&gt;Director&amp;nbsp;&lt;/span&gt;&lt;/div&gt;&lt;div&gt;&lt;span style=&quot;font-size: 24px;&quot;&gt;Movie Year&lt;/span&gt;&lt;span style=&quot;font-size: 24px;&quot;&gt;&lt;br&gt;&lt;/span&gt;&lt;/div&gt;&lt;div&gt;&lt;span style=&quot;font-size: 24px;&quot;&gt;Description:&amp;nbsp;&lt;br&gt;&lt;/span&gt;&lt;div&gt;&lt;br&gt;&lt;/div&gt;&lt;/div&gt;" style="rounded=0;whiteSpace=wrap;html=1;align=left;verticalAlign=top;labelBorderColor=none;strokeColor=none;movable=0;resizable=0;rotatable=0;deletable=0;editable=0;locked=1;connectable=0;" parent="gXBRPpkTJ4SZdGtCYp4G-240" vertex="1">
          <mxGeometry x="120" y="1161" width="510" height="200" as="geometry" />
        </mxCell>
        <mxCell id="gXBRPpkTJ4SZdGtCYp4G-274" value="&lt;font style=&quot;font-size: 24px;&quot;&gt;Notify me&amp;nbsp;&lt;/font&gt;" style="strokeWidth=1;shadow=0;dashed=0;align=center;html=1;shape=mxgraph.mockup.buttons.button;strokeColor=#666666;fontColor=#ffffff;mainText=;buttonStyle=round;fontSize=17;fontStyle=1;fillColor=#D40202;whiteSpace=wrap;movable=0;resizable=0;rotatable=0;deletable=0;editable=0;locked=1;connectable=0;" parent="gXBRPpkTJ4SZdGtCYp4G-240" vertex="1">
          <mxGeometry x="450" y="1171" width="180" height="60" as="geometry" />
        </mxCell>
        <mxCell id="gXBRPpkTJ4SZdGtCYp4G-275" value="" style="shape=image;html=1;verticalAlign=top;verticalLabelPosition=bottom;labelBackgroundColor=#ffffff;imageAspect=0;aspect=fixed;image=https://cdn3.iconfinder.com/data/icons/peelicons-vol-1/50/LinkedIn-128.png;fillColor=#212121;fontSize=13;fontColor=#0066CC;movable=0;resizable=0;rotatable=0;deletable=0;editable=0;locked=1;connectable=0;" parent="gXBRPpkTJ4SZdGtCYp4G-240" vertex="1">
          <mxGeometry x="274" y="2142" width="60" height="60" as="geometry" />
        </mxCell>
        <mxCell id="gXBRPpkTJ4SZdGtCYp4G-276" value="" style="shape=image;html=1;verticalAlign=top;verticalLabelPosition=bottom;labelBackgroundColor=#ffffff;imageAspect=0;aspect=fixed;image=https://cdn3.iconfinder.com/data/icons/peelicons-vol-1/50/Facebook-128.png;fillColor=#212121;fontSize=13;fontColor=#0066CC;movable=0;resizable=0;rotatable=0;deletable=0;editable=0;locked=1;connectable=0;" parent="gXBRPpkTJ4SZdGtCYp4G-240" vertex="1">
          <mxGeometry x="344" y="2140" width="60" height="60" as="geometry" />
        </mxCell>
        <mxCell id="gXBRPpkTJ4SZdGtCYp4G-277" value="" style="shape=image;html=1;verticalAlign=top;verticalLabelPosition=bottom;labelBackgroundColor=#ffffff;imageAspect=0;aspect=fixed;image=https://cdn3.iconfinder.com/data/icons/peelicons-vol-1/50/Twitter-128.png;fillColor=#212121;fontSize=13;fontColor=#0066CC;movable=0;resizable=0;rotatable=0;deletable=0;editable=0;locked=1;connectable=0;" parent="gXBRPpkTJ4SZdGtCYp4G-240" vertex="1">
          <mxGeometry x="416" y="2140" width="60" height="60" as="geometry" />
        </mxCell>
        <mxCell id="gXBRPpkTJ4SZdGtCYp4G-278" value="&amp;nbsp; &lt;span style=&quot;white-space: pre;&quot;&gt;&#x9;&lt;/span&gt;View Catalog" style="strokeWidth=1;shadow=0;dashed=0;align=center;html=1;shape=mxgraph.mockup.buttons.button;strokeColor=#666666;fontColor=#ffffff;mainText=;buttonStyle=round;fontSize=17;fontStyle=1;fillColor=#008cff;whiteSpace=wrap;movable=0;resizable=0;rotatable=0;deletable=0;editable=0;locked=1;connectable=0;" parent="gXBRPpkTJ4SZdGtCYp4G-240" vertex="1">
          <mxGeometry x="498" y="460" width="182" height="60" as="geometry" />
        </mxCell>
        <mxCell id="gXBRPpkTJ4SZdGtCYp4G-384" value="" style="rounded=0;whiteSpace=wrap;html=1;movable=0;resizable=0;rotatable=0;deletable=0;editable=0;locked=1;connectable=0;" parent="gXBRPpkTJ4SZdGtCYp4G-240" vertex="1">
          <mxGeometry y="110" width="750" height="90" as="geometry" />
        </mxCell>
        <mxCell id="gXBRPpkTJ4SZdGtCYp4G-253" value="The d company" style="text;html=1;strokeColor=none;fillColor=none;align=center;verticalAlign=middle;whiteSpace=wrap;rounded=0;fontSize=18;fontColor=#0066CC;movable=0;resizable=0;rotatable=0;deletable=0;editable=0;locked=1;connectable=0;" parent="gXBRPpkTJ4SZdGtCYp4G-240" vertex="1">
          <mxGeometry x="170" y="135" width="140" height="40" as="geometry" />
        </mxCell>
        <mxCell id="gXBRPpkTJ4SZdGtCYp4G-260" value="d" style="text;html=1;align=center;verticalAlign=middle;resizable=0;points=[];autosize=1;fontSize=37;fontFamily=Tahoma;fillColor=#008CFF;fontColor=#FFFFFF;movable=0;rotatable=0;deletable=0;editable=0;locked=1;connectable=0;" parent="gXBRPpkTJ4SZdGtCYp4G-240" vertex="1">
          <mxGeometry x="90" y="120" width="70" height="70" as="geometry" />
        </mxCell>
        <mxCell id="gXBRPpkTJ4SZdGtCYp4G-387" value="" style="shape=ellipse;fillColor=#f5f5f5;strokeColor=#666666;html=1;sketch=0;fontColor=#333333;rotation=0;movable=0;resizable=0;rotatable=0;deletable=0;editable=0;locked=1;connectable=0;" parent="gXBRPpkTJ4SZdGtCYp4G-240" vertex="1">
          <mxGeometry x="700" y="141" width="6" height="6" as="geometry" />
        </mxCell>
        <mxCell id="gXBRPpkTJ4SZdGtCYp4G-388" value="" style="shape=ellipse;fillColor=#f5f5f5;strokeColor=#666666;html=1;sketch=0;fontColor=#333333;rotation=0;movable=0;resizable=0;rotatable=0;deletable=0;editable=0;locked=1;connectable=0;" parent="gXBRPpkTJ4SZdGtCYp4G-240" vertex="1">
          <mxGeometry x="700" y="152" width="6" height="6" as="geometry" />
        </mxCell>
        <mxCell id="gXBRPpkTJ4SZdGtCYp4G-389" value="" style="shape=ellipse;fillColor=#f5f5f5;strokeColor=#666666;html=1;sketch=0;fontColor=#333333;rotation=0;movable=0;resizable=0;rotatable=0;deletable=0;editable=0;locked=1;connectable=0;" parent="gXBRPpkTJ4SZdGtCYp4G-240" vertex="1">
          <mxGeometry x="700" y="163" width="6" height="6" as="geometry" />
        </mxCell>
        <mxCell id="gXBRPpkTJ4SZdGtCYp4G-386" value="" style="rounded=1;align=center;html=1;whiteSpace=wrap;fontSize=12;sketch=0;fillColor=none;rotation=0;movable=0;resizable=0;rotatable=0;deletable=0;editable=0;locked=1;connectable=0;" parent="gXBRPpkTJ4SZdGtCYp4G-240" vertex="1">
          <mxGeometry x="678" y="130" width="50" height="50" as="geometry" />
        </mxCell>
        <mxCell id="gXBRPpkTJ4SZdGtCYp4G-390" value="&lt;span style=&quot;font-size: 24px;&quot;&gt;Full Catalog&lt;/span&gt;" style="strokeWidth=1;shadow=0;dashed=0;align=center;html=1;shape=mxgraph.mockup.buttons.button;strokeColor=#666666;fontColor=#ffffff;mainText=;buttonStyle=round;fontSize=17;fontStyle=1;fillColor=#D40202;whiteSpace=wrap;movable=0;resizable=0;rotatable=0;deletable=0;editable=0;locked=1;connectable=0;" parent="gXBRPpkTJ4SZdGtCYp4G-240" vertex="1">
          <mxGeometry x="242.5" y="1901" width="265" height="60" as="geometry" />
        </mxCell>
        <mxCell id="gXBRPpkTJ4SZdGtCYp4G-391" value="" style="verticalLabelPosition=bottom;shadow=0;dashed=0;align=center;html=1;verticalAlign=top;strokeWidth=1;shape=mxgraph.mockup.containers.userFemale;strokeColor=#42A7FF;strokeColor2=#66FFFF;comic=0;movable=0;resizable=0;rotatable=0;deletable=0;editable=0;locked=1;connectable=0;" parent="gXBRPpkTJ4SZdGtCYp4G-240" vertex="1">
          <mxGeometry x="610" y="130" width="50" height="50" as="geometry" />
        </mxCell>
        <mxCell id="gXBRPpkTJ4SZdGtCYp4G-392" value="" style="triangle;whiteSpace=wrap;html=1;align=left;fillColor=none;strokeColor=#000000;fontColor=#ffffff;direction=east;movable=0;resizable=0;rotatable=0;deletable=0;editable=0;locked=1;connectable=0;" parent="gXBRPpkTJ4SZdGtCYp4G-240" vertex="1">
          <mxGeometry x="520" y="472.5" width="30" height="35" as="geometry" />
        </mxCell>
        <mxCell id="gXBRPpkTJ4SZdGtCYp4G-393" value="" style="triangle;whiteSpace=wrap;html=1;align=left;fillColor=none;strokeColor=#000000;fontColor=#ffffff;direction=east;movable=0;resizable=0;rotatable=0;deletable=0;editable=0;locked=1;connectable=0;" parent="gXBRPpkTJ4SZdGtCYp4G-240" vertex="1">
          <mxGeometry x="260" y="1911" width="35" height="40" as="geometry" />
        </mxCell>
        <mxCell id="gXBRPpkTJ4SZdGtCYp4G-395" value="&lt;span&gt;Billboard&lt;/span&gt;" style="rounded=0;whiteSpace=wrap;html=1;movable=0;resizable=0;rotatable=0;deletable=0;editable=0;locked=1;connectable=0;fontSize=30;strokeColor=none;" parent="gXBRPpkTJ4SZdGtCYp4G-240" vertex="1">
          <mxGeometry x="204.54999999999995" y="1400" width="330" height="60" as="geometry" />
        </mxCell>
        <mxCell id="gXBRPpkTJ4SZdGtCYp4G-396" value="" style="endArrow=none;html=1;rounded=0;exitX=0.97;exitY=1.055;exitDx=0;exitDy=0;exitPerimeter=0;movable=0;resizable=0;rotatable=0;deletable=0;editable=0;locked=1;connectable=0;" parent="gXBRPpkTJ4SZdGtCYp4G-240" edge="1">
          <mxGeometry width="50" height="50" relative="1" as="geometry">
            <mxPoint x="609.0999999999999" y="1471" as="sourcePoint" />
            <mxPoint x="130" y="1471" as="targetPoint" />
          </mxGeometry>
        </mxCell>
        <mxCell id="8962rQQDY3VNNf6We3Pp-1" value="" style="strokeWidth=1;shadow=0;dashed=0;align=left;html=1;shape=mxgraph.mockup.containers.browserWindow;rSize=0;strokeColor2=#008cff;strokeColor3=#c4c4c4;mainText=,;recursiveResize=0;strokeColor=#FFFFFF;fontColor=#000000;verticalAlign=top;movable=1;resizable=1;rotatable=1;deletable=1;editable=1;locked=0;connectable=1;" parent="1" vertex="1">
          <mxGeometry x="100" y="370" width="1151" height="2240" as="geometry" />
        </mxCell>
        <mxCell id="8962rQQDY3VNNf6We3Pp-2" value="Page 1" style="strokeWidth=1;shadow=0;dashed=0;align=center;html=1;shape=mxgraph.mockup.containers.anchor;fontSize=17;fontColor=#666666;align=left;movable=0;resizable=0;rotatable=0;deletable=0;editable=0;locked=1;connectable=0;" parent="8962rQQDY3VNNf6We3Pp-1" vertex="1">
          <mxGeometry x="60" y="12" width="110" height="26" as="geometry" />
        </mxCell>
        <mxCell id="8962rQQDY3VNNf6We3Pp-3" value="https://www.example.com" style="strokeWidth=1;shadow=0;dashed=0;align=center;html=1;shape=mxgraph.mockup.containers.anchor;rSize=0;fontSize=17;fontColor=#666666;align=left;movable=0;resizable=0;rotatable=0;deletable=0;editable=0;locked=1;connectable=0;" parent="8962rQQDY3VNNf6We3Pp-1" vertex="1">
          <mxGeometry x="130" y="60" width="250" height="26" as="geometry" />
        </mxCell>
        <mxCell id="8962rQQDY3VNNf6We3Pp-4" value="" style="verticalLabelPosition=bottom;shadow=0;dashed=0;align=center;html=1;verticalAlign=top;strokeWidth=1;shape=mxgraph.mockup.containers.videoPlayer;strokeColor=#666666;strokeColor2=#008cff;strokeColor3=#c4c4c4;textColor=#666666;fillColor2=#008cff;barHeight=30;barPos=22.585;fillColor=light-dark(#FFFFFF,#005157);movable=0;resizable=0;rotatable=0;deletable=0;editable=0;locked=1;connectable=0;" parent="8962rQQDY3VNNf6We3Pp-1" vertex="1">
          <mxGeometry y="110" width="1150" height="590" as="geometry" />
        </mxCell>
        <mxCell id="8962rQQDY3VNNf6We3Pp-17" value="" style="html=1;verticalLabelPosition=bottom;align=center;labelBackgroundColor=#ffffff;verticalAlign=top;strokeWidth=2;strokeColor=#0080F0;shadow=0;dashed=0;shape=mxgraph.ios7.icons.video_conversation;fontSize=13;fontColor=#0066CC;movable=0;resizable=0;rotatable=0;deletable=0;editable=0;locked=1;connectable=0;" parent="8962rQQDY3VNNf6We3Pp-1" vertex="1">
          <mxGeometry x="420" y="320" width="310" height="170" as="geometry" />
        </mxCell>
        <mxCell id="8962rQQDY3VNNf6We3Pp-27" value="" style="strokeWidth=1;shadow=0;dashed=0;align=center;html=1;shape=mxgraph.mockup.buttons.multiButton;fillColor=#000066;strokeColor=#666666;mainText=;subText=;fontSize=13;fontColor=#0066CC;movable=0;resizable=0;rotatable=0;deletable=0;editable=0;locked=1;connectable=0;" parent="8962rQQDY3VNNf6We3Pp-1" vertex="1">
          <mxGeometry y="753" width="530" height="490" as="geometry" />
        </mxCell>
        <mxCell id="8962rQQDY3VNNf6We3Pp-28" value="" style="strokeWidth=1;shadow=0;dashed=0;align=center;html=1;shape=mxgraph.mockup.anchor;fontSize=16;fontColor=#ffffff;fontStyle=1;whiteSpace=wrap;movable=0;resizable=0;rotatable=0;deletable=0;editable=0;locked=1;connectable=0;" parent="8962rQQDY3VNNf6We3Pp-27" vertex="1">
          <mxGeometry y="78.4" width="530" height="196" as="geometry" />
        </mxCell>
        <mxCell id="8962rQQDY3VNNf6We3Pp-29" value="" style="strokeWidth=1;shadow=0;dashed=0;align=center;html=1;shape=mxgraph.mockup.anchor;fontSize=12;fontColor=#ffffff;fontStyle=1;whiteSpace=wrap;movable=0;resizable=0;rotatable=0;deletable=0;editable=0;locked=1;connectable=0;" parent="8962rQQDY3VNNf6We3Pp-27" vertex="1">
          <mxGeometry y="294" width="530" height="98" as="geometry" />
        </mxCell>
        <mxCell id="gXBRPpkTJ4SZdGtCYp4G-70" value="" style="html=1;verticalLabelPosition=bottom;align=center;labelBackgroundColor=#ffffff;verticalAlign=top;strokeWidth=2;strokeColor=#0080F0;shadow=0;dashed=0;shape=mxgraph.ios7.icons.video_conversation;fontSize=13;fontColor=#0066CC;movable=0;resizable=0;rotatable=0;deletable=0;editable=0;locked=1;connectable=0;" parent="8962rQQDY3VNNf6We3Pp-27" vertex="1">
          <mxGeometry x="110" y="170" width="310" height="150" as="geometry" />
        </mxCell>
        <mxCell id="8962rQQDY3VNNf6We3Pp-35" value="" style="verticalLabelPosition=bottom;shadow=0;dashed=0;align=center;html=1;verticalAlign=top;strokeWidth=1;shape=mxgraph.mockup.markup.line;strokeColor=#999999;fillColor=#008CFF;fontSize=13;fontColor=#0066CC;movable=0;resizable=0;rotatable=0;deletable=0;editable=0;locked=1;connectable=0;" parent="8962rQQDY3VNNf6We3Pp-1" vertex="1">
          <mxGeometry y="1233" width="1150" height="20" as="geometry" />
        </mxCell>
        <mxCell id="gXBRPpkTJ4SZdGtCYp4G-9" value="" style="rounded=0;whiteSpace=wrap;html=1;movable=0;resizable=0;rotatable=0;deletable=0;editable=0;locked=1;connectable=0;" parent="8962rQQDY3VNNf6We3Pp-1" vertex="1">
          <mxGeometry x="80" y="1440" width="990" height="370" as="geometry" />
        </mxCell>
        <mxCell id="gXBRPpkTJ4SZdGtCYp4G-13" value="" style="whiteSpace=wrap;html=1;fillColor=light-dark(#FFFFFF,#000066);movable=0;resizable=0;rotatable=0;deletable=0;editable=0;locked=1;connectable=0;" parent="8962rQQDY3VNNf6We3Pp-1" vertex="1">
          <mxGeometry x="156" y="1440" width="260" height="370" as="geometry" />
        </mxCell>
        <mxCell id="gXBRPpkTJ4SZdGtCYp4G-53" value="" style="whiteSpace=wrap;html=1;fillColor=light-dark(#FFFFFF,#000066);movable=0;resizable=0;rotatable=0;deletable=0;editable=0;locked=1;connectable=0;" parent="8962rQQDY3VNNf6We3Pp-1" vertex="1">
          <mxGeometry x="446" y="1440" width="260" height="370" as="geometry" />
        </mxCell>
        <mxCell id="gXBRPpkTJ4SZdGtCYp4G-54" value="" style="whiteSpace=wrap;html=1;fillColor=light-dark(#FFFFFF,#000066);movable=0;resizable=0;rotatable=0;deletable=0;editable=0;locked=1;connectable=0;" parent="8962rQQDY3VNNf6We3Pp-1" vertex="1">
          <mxGeometry x="736" y="1440" width="260" height="370" as="geometry" />
        </mxCell>
        <mxCell id="gXBRPpkTJ4SZdGtCYp4G-57" value="" style="shape=step;perimeter=stepPerimeter;whiteSpace=wrap;html=1;fixedSize=1;rotation=0;direction=west;size=20;fillColor=light-dark(#FFFFFF,#FF2828);movable=0;resizable=0;rotatable=0;deletable=0;editable=0;locked=1;connectable=0;" parent="8962rQQDY3VNNf6We3Pp-1" vertex="1">
          <mxGeometry x="90" y="1600" width="30" height="40" as="geometry" />
        </mxCell>
        <mxCell id="gXBRPpkTJ4SZdGtCYp4G-58" value="" style="shape=step;perimeter=stepPerimeter;whiteSpace=wrap;html=1;fixedSize=1;rotation=0;direction=east;size=20;fillColor=light-dark(#FFFFFF,#FF2828);movable=0;resizable=0;rotatable=0;deletable=0;editable=0;locked=1;connectable=0;" parent="8962rQQDY3VNNf6We3Pp-1" vertex="1">
          <mxGeometry x="1020" y="1600" width="30" height="40" as="geometry" />
        </mxCell>
        <mxCell id="gXBRPpkTJ4SZdGtCYp4G-59" value="" style="html=1;verticalLabelPosition=bottom;align=center;labelBackgroundColor=#ffffff;verticalAlign=top;strokeWidth=2;strokeColor=#0080F0;shadow=0;dashed=0;shape=mxgraph.ios7.icons.video_conversation;fontSize=13;fontColor=#0066CC;movable=0;resizable=0;rotatable=0;deletable=0;editable=0;locked=1;connectable=0;" parent="8962rQQDY3VNNf6We3Pp-1" vertex="1">
          <mxGeometry x="216.5" y="1575" width="139" height="90" as="geometry" />
        </mxCell>
        <mxCell id="gXBRPpkTJ4SZdGtCYp4G-61" value="" style="html=1;verticalLabelPosition=bottom;align=center;labelBackgroundColor=#ffffff;verticalAlign=top;strokeWidth=2;strokeColor=#0080F0;shadow=0;dashed=0;shape=mxgraph.ios7.icons.video_conversation;fontSize=13;fontColor=#0066CC;movable=0;resizable=0;rotatable=0;deletable=0;editable=0;locked=1;connectable=0;" parent="8962rQQDY3VNNf6We3Pp-1" vertex="1">
          <mxGeometry x="796.5" y="1575" width="139" height="90" as="geometry" />
        </mxCell>
        <mxCell id="gXBRPpkTJ4SZdGtCYp4G-60" value="" style="html=1;verticalLabelPosition=bottom;align=center;labelBackgroundColor=#ffffff;verticalAlign=top;strokeWidth=2;strokeColor=#0080F0;shadow=0;dashed=0;shape=mxgraph.ios7.icons.video_conversation;fontSize=13;fontColor=#0066CC;movable=0;resizable=0;rotatable=0;deletable=0;editable=0;locked=1;connectable=0;" parent="8962rQQDY3VNNf6We3Pp-1" vertex="1">
          <mxGeometry x="506.5" y="1580" width="139" height="90" as="geometry" />
        </mxCell>
        <mxCell id="gXBRPpkTJ4SZdGtCYp4G-62" value="" style="whiteSpace=wrap;html=1;fillColor=light-dark(#FFFFFF,#4D4D4D);movable=0;resizable=0;rotatable=0;deletable=0;editable=0;locked=1;connectable=0;" parent="8962rQQDY3VNNf6We3Pp-1" vertex="1">
          <mxGeometry y="1950" width="1150" height="290" as="geometry" />
        </mxCell>
        <mxCell id="gXBRPpkTJ4SZdGtCYp4G-66" value="&lt;span style=&quot;font-size: 24px;&quot;&gt;Premiere&lt;/span&gt;" style="rounded=0;whiteSpace=wrap;html=1;movable=0;resizable=0;rotatable=0;deletable=0;editable=0;locked=1;connectable=0;" parent="8962rQQDY3VNNf6We3Pp-1" vertex="1">
          <mxGeometry x="680" y="773" width="330" height="60" as="geometry" />
        </mxCell>
        <mxCell id="gXBRPpkTJ4SZdGtCYp4G-67" value="&lt;font style=&quot;font-size: 36px;&quot;&gt;Movie/Serie Name&lt;/font&gt;" style="rounded=0;whiteSpace=wrap;html=1;strokeColor=none;align=left;movable=0;resizable=0;rotatable=0;deletable=0;editable=0;locked=1;connectable=0;" parent="8962rQQDY3VNNf6We3Pp-1" vertex="1">
          <mxGeometry x="556" y="863" width="324" height="90" as="geometry" />
        </mxCell>
        <mxCell id="gXBRPpkTJ4SZdGtCYp4G-68" value="&lt;div&gt;&lt;span style=&quot;font-size: 24px;&quot;&gt;Release date&lt;span style=&quot;white-space: pre;&quot;&gt;&#x9;&lt;/span&gt;&lt;span style=&quot;white-space: pre;&quot;&gt;&#x9;&lt;/span&gt;&lt;span style=&quot;white-space: pre;&quot;&gt;&#x9;&lt;/span&gt;&lt;span style=&quot;white-space: pre;&quot;&gt;&#x9;&lt;/span&gt;&lt;span style=&quot;white-space: pre;&quot;&gt;&#x9;&lt;/span&gt;&lt;/span&gt;&lt;span style=&quot;font-size: 24px; background-color: transparent; color: light-dark(rgb(0, 0, 0), rgb(255, 255, 255));&quot;&gt;Movie Year&lt;/span&gt;&lt;/div&gt;&lt;div&gt;&lt;br&gt;&lt;/div&gt;&lt;div&gt;&lt;span style=&quot;font-size: 24px;&quot;&gt;Director&amp;nbsp;&lt;/span&gt;&lt;/div&gt;&lt;div&gt;&lt;span style=&quot;font-size: 24px;&quot;&gt;Author&lt;/span&gt;&lt;/div&gt;&lt;div&gt;&lt;span style=&quot;font-size: 24px;&quot;&gt;Description:&amp;nbsp;&lt;br&gt;&lt;/span&gt;&lt;div&gt;&lt;br&gt;&lt;/div&gt;&lt;/div&gt;" style="rounded=0;whiteSpace=wrap;html=1;align=left;verticalAlign=top;labelBorderColor=none;strokeColor=none;movable=0;resizable=0;rotatable=0;deletable=0;editable=0;locked=1;connectable=0;" parent="8962rQQDY3VNNf6We3Pp-1" vertex="1">
          <mxGeometry x="556" y="950" width="530" height="240" as="geometry" />
        </mxCell>
        <mxCell id="gXBRPpkTJ4SZdGtCYp4G-69" value="&lt;font style=&quot;font-size: 24px;&quot;&gt;Notify me&amp;nbsp;&lt;/font&gt;" style="strokeWidth=1;shadow=0;dashed=0;align=center;html=1;shape=mxgraph.mockup.buttons.button;strokeColor=#666666;fontColor=#ffffff;mainText=;buttonStyle=round;fontSize=17;fontStyle=1;fillColor=#D40202;whiteSpace=wrap;movable=0;resizable=0;rotatable=0;deletable=0;editable=0;locked=1;connectable=0;" parent="8962rQQDY3VNNf6We3Pp-1" vertex="1">
          <mxGeometry x="870" y="873" width="180" height="60" as="geometry" />
        </mxCell>
        <mxCell id="8962rQQDY3VNNf6We3Pp-36" value="" style="shape=image;html=1;verticalAlign=top;verticalLabelPosition=bottom;labelBackgroundColor=#ffffff;imageAspect=0;aspect=fixed;image=https://cdn3.iconfinder.com/data/icons/peelicons-vol-1/50/LinkedIn-128.png;fillColor=#212121;fontSize=13;fontColor=#0066CC;movable=0;resizable=0;rotatable=0;deletable=0;editable=0;locked=1;connectable=0;" parent="8962rQQDY3VNNf6We3Pp-1" vertex="1">
          <mxGeometry x="80" y="2112" width="60" height="60" as="geometry" />
        </mxCell>
        <mxCell id="8962rQQDY3VNNf6We3Pp-37" value="" style="shape=image;html=1;verticalAlign=top;verticalLabelPosition=bottom;labelBackgroundColor=#ffffff;imageAspect=0;aspect=fixed;image=https://cdn3.iconfinder.com/data/icons/peelicons-vol-1/50/Facebook-128.png;fillColor=#212121;fontSize=13;fontColor=#0066CC;movable=0;resizable=0;rotatable=0;deletable=0;editable=0;locked=1;connectable=0;" parent="8962rQQDY3VNNf6We3Pp-1" vertex="1">
          <mxGeometry x="150" y="2110" width="60" height="60" as="geometry" />
        </mxCell>
        <mxCell id="8962rQQDY3VNNf6We3Pp-38" value="" style="shape=image;html=1;verticalAlign=top;verticalLabelPosition=bottom;labelBackgroundColor=#ffffff;imageAspect=0;aspect=fixed;image=https://cdn3.iconfinder.com/data/icons/peelicons-vol-1/50/Twitter-128.png;fillColor=#212121;fontSize=13;fontColor=#0066CC;movable=0;resizable=0;rotatable=0;deletable=0;editable=0;locked=1;connectable=0;" parent="8962rQQDY3VNNf6We3Pp-1" vertex="1">
          <mxGeometry x="222" y="2110" width="60" height="60" as="geometry" />
        </mxCell>
        <mxCell id="gXBRPpkTJ4SZdGtCYp4G-366" value="&lt;font face=&quot;Georgia&quot; style=&quot;font-size: 14px;&quot;&gt;&amp;nbsp; Watch now&lt;/font&gt;" style="triangle;whiteSpace=wrap;html=1;align=left;fillColor=#e51400;strokeColor=#B20000;fontColor=#ffffff;movable=0;resizable=0;rotatable=0;deletable=0;editable=0;locked=1;connectable=0;" parent="8962rQQDY3VNNf6We3Pp-1" vertex="1">
          <mxGeometry x="930" y="510" width="110" height="120" as="geometry" />
        </mxCell>
        <mxCell id="gXBRPpkTJ4SZdGtCYp4G-367" value="&lt;font&gt;information shown when the user hovers over it&amp;nbsp;&amp;nbsp;&lt;/font&gt;" style="whiteSpace=wrap;html=1;movable=0;resizable=0;rotatable=0;deletable=0;editable=0;locked=1;connectable=0;gradientDirection=west;glass=1;direction=west;fillColor=#f5f5f5;strokeColor=#666666;sketch=1;curveFitting=1;jiggle=2;fontColor=#FFFFFF;fontSize=22;" parent="8962rQQDY3VNNf6We3Pp-1" vertex="1">
          <mxGeometry x="741" y="1440" width="260" height="365" as="geometry" />
        </mxCell>
        <mxCell id="gXBRPpkTJ4SZdGtCYp4G-368" value="&lt;span&gt;Billboard&lt;/span&gt;" style="rounded=0;whiteSpace=wrap;html=1;movable=0;resizable=0;rotatable=0;deletable=0;editable=0;locked=1;connectable=0;fontSize=30;strokeColor=none;" parent="8962rQQDY3VNNf6We3Pp-1" vertex="1">
          <mxGeometry x="410" y="1324" width="330" height="60" as="geometry" />
        </mxCell>
        <mxCell id="gXBRPpkTJ4SZdGtCYp4G-369" value="" style="endArrow=none;html=1;rounded=0;exitX=0.97;exitY=1.055;exitDx=0;exitDy=0;exitPerimeter=0;movable=0;resizable=0;rotatable=0;deletable=0;editable=0;locked=1;connectable=0;" parent="8962rQQDY3VNNf6We3Pp-1" edge="1">
          <mxGeometry width="50" height="50" relative="1" as="geometry">
            <mxPoint x="814.55" y="1403" as="sourcePoint" />
            <mxPoint x="335.45" y="1403" as="targetPoint" />
          </mxGeometry>
        </mxCell>
        <mxCell id="VUAyHo8NqwSObgNpuHy8-1" value="" style="whiteSpace=wrap;html=1;sketch=1;hachureGap=4;jiggle=2;curveFitting=1;fontFamily=Architects Daughter;fontSource=https%3A%2F%2Ffonts.googleapis.com%2Fcss%3Ffamily%3DArchitects%2BDaughter;strokeColor=none;" vertex="1" parent="8962rQQDY3VNNf6We3Pp-1">
          <mxGeometry y="110" width="1150" height="70" as="geometry" />
        </mxCell>
        <mxCell id="gXBRPpkTJ4SZdGtCYp4G-378" value="&lt;span style=&quot;font-size: 24px;&quot;&gt;Full Catalog&lt;/span&gt;" style="strokeWidth=1;shadow=0;dashed=0;align=center;html=1;shape=mxgraph.mockup.buttons.button;strokeColor=#666666;fontColor=#ffffff;mainText=;buttonStyle=round;fontSize=17;fontStyle=0;fillColor=#D40202;whiteSpace=wrap;movable=1;resizable=1;rotatable=1;deletable=1;editable=1;locked=0;connectable=1;" parent="8962rQQDY3VNNf6We3Pp-1" vertex="1">
          <mxGeometry x="443.5" y="1850" width="265" height="60" as="geometry" />
        </mxCell>
        <mxCell id="gXBRPpkTJ4SZdGtCYp4G-379" value="" style="triangle;whiteSpace=wrap;html=1;align=left;fillColor=none;strokeColor=#000000;fontColor=#ffffff;direction=east;movable=0;resizable=0;rotatable=0;deletable=0;editable=0;locked=1;connectable=0;" parent="8962rQQDY3VNNf6We3Pp-1" vertex="1">
          <mxGeometry x="460" y="1860" width="35" height="40" as="geometry" />
        </mxCell>
        <mxCell id="CcM8Ff5WYLCsAASZxkpC-1" value="&lt;span style=&quot;font-size: 24px;&quot;&gt;More datails&lt;/span&gt;" style="strokeWidth=1;shadow=0;dashed=0;align=center;html=1;shape=mxgraph.mockup.buttons.button;strokeColor=#666666;fontColor=#ffffff;mainText=;buttonStyle=round;fontSize=17;fontStyle=0;fillColor=#D40202;whiteSpace=wrap;movable=1;resizable=1;rotatable=1;deletable=1;editable=1;locked=0;connectable=1;" parent="8962rQQDY3VNNf6We3Pp-1" vertex="1">
          <mxGeometry x="498" y="1730" width="154" height="60" as="geometry" />
        </mxCell>
        <mxCell id="8962rQQDY3VNNf6We3Pp-10" value="Genders" style="rounded=1;fillColor=#F1F2F4;strokeColor=none;html=1;fontColor=#596780;align=left;fontSize=10;spacingLeft=10;movable=1;resizable=1;rotatable=1;deletable=1;editable=1;locked=0;connectable=1;" parent="8962rQQDY3VNNf6We3Pp-1" vertex="1">
          <mxGeometry x="889" y="127" width="90" height="33" as="geometry" />
        </mxCell>
        <mxCell id="8962rQQDY3VNNf6We3Pp-11" value="" style="shape=triangle;direction=south;fillColor=#596780;strokeColor=none;html=1;movable=1;resizable=1;rotatable=1;deletable=1;editable=1;locked=0;connectable=1;" parent="8962rQQDY3VNNf6We3Pp-10" vertex="1">
          <mxGeometry x="1" y="0.5" width="12" height="6" relative="1" as="geometry">
            <mxPoint x="-20" y="-3" as="offset" />
          </mxGeometry>
        </mxCell>
        <mxCell id="8962rQQDY3VNNf6We3Pp-12" value="Catalog&amp;nbsp;" style="rounded=1;fillColor=#F1F2F4;strokeColor=none;html=1;fontColor=#596780;align=left;fontSize=10;spacingLeft=10;movable=1;resizable=1;rotatable=1;deletable=1;editable=1;locked=0;connectable=1;" parent="8962rQQDY3VNNf6We3Pp-1" vertex="1">
          <mxGeometry x="779" y="127" width="90" height="33" as="geometry" />
        </mxCell>
        <mxCell id="8962rQQDY3VNNf6We3Pp-13" value="" style="shape=triangle;direction=south;fillColor=#596780;strokeColor=none;html=1;movable=1;resizable=1;rotatable=1;deletable=1;editable=1;locked=0;connectable=1;" parent="8962rQQDY3VNNf6We3Pp-12" vertex="1">
          <mxGeometry x="1" y="0.5" width="12" height="6" relative="1" as="geometry">
            <mxPoint x="-20" y="-3" as="offset" />
          </mxGeometry>
        </mxCell>
        <mxCell id="8962rQQDY3VNNf6We3Pp-14" value="Log in" style="rounded=1;align=center;strokeColor=none;html=1;fontColor=#ffffff;fontSize=12;fillColor=#008CFF;movable=1;resizable=1;rotatable=1;deletable=1;editable=1;locked=0;connectable=1;" parent="8962rQQDY3VNNf6We3Pp-1" vertex="1">
          <mxGeometry x="1001" y="127" width="84" height="33" as="geometry" />
        </mxCell>
        <mxCell id="gXBRPpkTJ4SZdGtCYp4G-287" value="" style="verticalLabelPosition=bottom;shadow=0;dashed=0;align=center;html=1;verticalAlign=top;strokeWidth=1;shape=mxgraph.mockup.containers.userFemale;strokeColor=#42A7FF;strokeColor2=#66FFFF;comic=0;movable=1;resizable=1;rotatable=1;deletable=1;editable=1;locked=0;connectable=1;" parent="8962rQQDY3VNNf6We3Pp-1" vertex="1">
          <mxGeometry x="1100" y="128.5" width="30" height="30" as="geometry" />
        </mxCell>
        <mxCell id="gXBRPpkTJ4SZdGtCYp4G-363" value="&lt;font style=&quot;color: rgb(66, 167, 255);&quot;&gt;My movies&lt;/font&gt;" style="rounded=1;align=center;strokeColor=#3399FF;html=1;fontColor=#ffffff;fontSize=12;fillColor=none;movable=1;resizable=1;rotatable=1;deletable=1;editable=1;locked=0;connectable=1;" parent="8962rQQDY3VNNf6We3Pp-1" vertex="1">
          <mxGeometry x="1001" y="170" width="95" height="33" as="geometry" />
        </mxCell>
        <mxCell id="gXBRPpkTJ4SZdGtCYp4G-370" value="Movies" style="rounded=1;fillColor=#F1F2F4;strokeColor=none;html=1;fontColor=#596780;align=left;fontSize=10;spacingLeft=10;movable=1;resizable=1;rotatable=1;deletable=1;editable=1;locked=0;connectable=1;" parent="8962rQQDY3VNNf6We3Pp-1" vertex="1">
          <mxGeometry x="780" y="180" width="90" height="33" as="geometry" />
        </mxCell>
        <mxCell id="VUAyHo8NqwSObgNpuHy8-50" value="" style="whiteSpace=wrap;html=1;sketch=1;hachureGap=4;jiggle=2;curveFitting=1;fontFamily=Architects Daughter;fontSource=https%3A%2F%2Ffonts.googleapis.com%2Fcss%3Ffamily%3DArchitects%2BDaughter;strokeColor=none;" vertex="1" parent="8962rQQDY3VNNf6We3Pp-1">
          <mxGeometry x="60" y="110" width="209" height="100" as="geometry" />
        </mxCell>
        <mxCell id="gXBRPpkTJ4SZdGtCYp4G-372" value="Series" style="rounded=1;fillColor=#F1F2F4;strokeColor=none;html=1;fontColor=#596780;align=left;fontSize=10;spacingLeft=10;movable=1;resizable=1;rotatable=1;deletable=1;editable=1;locked=0;connectable=1;" parent="8962rQQDY3VNNf6We3Pp-1" vertex="1">
          <mxGeometry x="780" y="203" width="90" height="33" as="geometry" />
        </mxCell>
        <mxCell id="gXBRPpkTJ4SZdGtCYp4G-376" value="Mystery" style="rounded=1;fillColor=#F1F2F4;strokeColor=none;html=1;fontColor=#596780;align=left;fontSize=10;spacingLeft=10;movable=1;resizable=1;rotatable=1;deletable=1;editable=1;locked=0;connectable=1;" parent="8962rQQDY3VNNf6We3Pp-1" vertex="1">
          <mxGeometry x="889" y="203" width="90" height="33" as="geometry" />
        </mxCell>
        <mxCell id="gXBRPpkTJ4SZdGtCYp4G-377" value="Action" style="rounded=1;fillColor=#F1F2F4;strokeColor=none;html=1;fontColor=#596780;align=left;fontSize=10;spacingLeft=10;movable=1;resizable=1;rotatable=1;deletable=1;editable=1;locked=0;connectable=1;" parent="8962rQQDY3VNNf6We3Pp-1" vertex="1">
          <mxGeometry x="889" y="227" width="90" height="33" as="geometry" />
        </mxCell>
        <mxCell id="8962rQQDY3VNNf6We3Pp-16" value="The d company" style="text;html=1;strokeColor=none;fillColor=none;align=center;verticalAlign=middle;whiteSpace=wrap;rounded=0;fontSize=13;fontColor=#0066CC;movable=1;resizable=1;rotatable=1;deletable=1;editable=1;locked=0;connectable=1;" parent="8962rQQDY3VNNf6We3Pp-1" vertex="1">
          <mxGeometry x="140" y="155" width="94.5" height="20" as="geometry" />
        </mxCell>
        <mxCell id="seymav8gBYocV3_De4xC-2" value="d" style="text;html=1;align=center;verticalAlign=middle;resizable=1;points=[];autosize=1;fontSize=37;fontFamily=Tahoma;fillColor=#008CFF;fontColor=#FFFFFF;movable=1;rotatable=1;deletable=1;editable=1;locked=0;connectable=1;" parent="8962rQQDY3VNNf6We3Pp-1" vertex="1">
          <mxGeometry x="94.5" y="135" width="40" height="50" as="geometry" />
        </mxCell>
        <mxCell id="gXBRPpkTJ4SZdGtCYp4G-4" style="edgeStyle=orthogonalEdgeStyle;rounded=0;orthogonalLoop=1;jettySize=auto;html=1;entryX=0.5;entryY=1;entryDx=0;entryDy=0;exitX=0.001;exitY=0.429;exitDx=0;exitDy=0;exitPerimeter=0;movable=0;resizable=0;rotatable=0;deletable=0;editable=0;locked=1;connectable=0;" parent="1" source="8962rQQDY3VNNf6We3Pp-4" target="gXBRPpkTJ4SZdGtCYp4G-6" edge="1">
          <mxGeometry relative="1" as="geometry">
            <mxPoint x="-310" y="430" as="targetPoint" />
          </mxGeometry>
        </mxCell>
        <mxCell id="gXBRPpkTJ4SZdGtCYp4G-6" value="&lt;font style=&quot;font-size: 24px;&quot;&gt;Movie &lt;font style=&quot;&quot;&gt;preview&lt;/font&gt;&lt;/font&gt;" style="rounded=0;whiteSpace=wrap;html=1;sketch=1;curveFitting=1;jiggle=2;fillColor=#ffff88;strokeColor=#36393d;movable=0;resizable=0;rotatable=0;deletable=0;editable=0;locked=1;connectable=0;" parent="1" vertex="1">
          <mxGeometry x="-240" y="590" width="210" height="90" as="geometry" />
        </mxCell>
        <mxCell id="gXBRPpkTJ4SZdGtCYp4G-11" value="&lt;font style=&quot;font-size: 24px;&quot;&gt;Cover carousel&lt;/font&gt;" style="rounded=0;whiteSpace=wrap;html=1;sketch=1;curveFitting=1;jiggle=2;fillColor=#ffff88;strokeColor=#36393d;movable=0;resizable=0;rotatable=0;deletable=0;editable=0;locked=1;connectable=0;" parent="1" vertex="1">
          <mxGeometry x="-260" y="1830" width="240" height="70" as="geometry" />
        </mxCell>
        <mxCell id="gXBRPpkTJ4SZdGtCYp4G-10" style="edgeStyle=orthogonalEdgeStyle;rounded=0;orthogonalLoop=1;jettySize=auto;html=1;entryX=0.5;entryY=1;entryDx=0;entryDy=0;movable=0;resizable=0;rotatable=0;deletable=0;editable=0;locked=1;connectable=0;" parent="1" source="gXBRPpkTJ4SZdGtCYp4G-9" target="gXBRPpkTJ4SZdGtCYp4G-11" edge="1">
          <mxGeometry relative="1" as="geometry">
            <mxPoint x="-160" y="1670" as="targetPoint" />
          </mxGeometry>
        </mxCell>
        <mxCell id="gXBRPpkTJ4SZdGtCYp4G-279" value="&lt;span style=&quot;font-size: 24px;&quot;&gt;LARGE VIEW&lt;/span&gt;" style="rounded=0;whiteSpace=wrap;html=1;" parent="1" vertex="1">
          <mxGeometry x="550" y="160" width="330" height="170" as="geometry" />
        </mxCell>
        <mxCell id="gXBRPpkTJ4SZdGtCYp4G-280" value="&lt;span style=&quot;font-size: 24px;&quot;&gt;SMALL VIEW&lt;/span&gt;" style="rounded=0;whiteSpace=wrap;html=1;" parent="1" vertex="1">
          <mxGeometry x="1920" y="120" width="330" height="170" as="geometry" />
        </mxCell>
        <mxCell id="gXBRPpkTJ4SZdGtCYp4G-283" value="&lt;span style=&quot;font-size: 24px;&quot;&gt;Premiere&lt;/span&gt;" style="rounded=0;whiteSpace=wrap;html=1;sketch=1;curveFitting=1;jiggle=2;fillColor=#ffff88;strokeColor=#36393d;movable=0;resizable=0;rotatable=0;deletable=0;editable=0;locked=1;connectable=0;" parent="1" vertex="1">
          <mxGeometry x="-260" y="1110" width="210" height="90" as="geometry" />
        </mxCell>
        <mxCell id="gXBRPpkTJ4SZdGtCYp4G-284" style="edgeStyle=orthogonalEdgeStyle;rounded=0;orthogonalLoop=1;jettySize=auto;html=1;entryX=0.5;entryY=1;entryDx=0;entryDy=0;movable=0;resizable=0;rotatable=0;deletable=0;editable=0;locked=1;connectable=0;" parent="1" source="8962rQQDY3VNNf6We3Pp-27" target="gXBRPpkTJ4SZdGtCYp4G-283" edge="1">
          <mxGeometry relative="1" as="geometry" />
        </mxCell>
        <mxCell id="gXBRPpkTJ4SZdGtCYp4G-282" value="The catalog includes &lt;b&gt;&lt;u style=&quot;&quot;&gt;movies&lt;/u&gt;&lt;/b&gt;&amp;nbsp;and &lt;u&gt;&lt;b&gt;series&lt;/b&gt;&lt;/u&gt;" style="rounded=0;whiteSpace=wrap;html=1;sketch=1;curveFitting=1;jiggle=2;fillColor=#ffff88;strokeColor=#36393d;fontColor=#FFFFFF;movable=0;resizable=0;rotatable=0;deletable=0;editable=0;locked=1;connectable=0;" parent="1" vertex="1">
          <mxGeometry x="1260" y="670" width="160" height="70" as="geometry" />
        </mxCell>
        <mxCell id="gXBRPpkTJ4SZdGtCYp4G-281" style="edgeStyle=orthogonalEdgeStyle;rounded=0;orthogonalLoop=1;jettySize=auto;html=1;movable=0;resizable=0;rotatable=0;deletable=0;editable=0;locked=1;connectable=0;" parent="1" source="8962rQQDY3VNNf6We3Pp-12" target="gXBRPpkTJ4SZdGtCYp4G-282" edge="1">
          <mxGeometry relative="1" as="geometry">
            <Array as="points">
              <mxPoint x="930" y="700" />
            </Array>
          </mxGeometry>
        </mxCell>
        <mxCell id="gXBRPpkTJ4SZdGtCYp4G-288" value="The genders stands for type of movies" style="rounded=0;whiteSpace=wrap;html=1;sketch=1;curveFitting=1;jiggle=2;fillColor=#ffff88;strokeColor=#36393d;fontColor=#FFFFFF;movable=0;resizable=0;rotatable=0;deletable=0;editable=0;locked=1;connectable=0;" parent="1" vertex="1">
          <mxGeometry x="1280" y="580" width="160" height="70" as="geometry" />
        </mxCell>
        <mxCell id="gXBRPpkTJ4SZdGtCYp4G-290" style="edgeStyle=orthogonalEdgeStyle;rounded=0;orthogonalLoop=1;jettySize=auto;html=1;entryX=0;entryY=0.5;entryDx=0;entryDy=0;movable=0;resizable=0;rotatable=0;deletable=0;editable=0;locked=1;connectable=0;" parent="1" source="gXBRPpkTJ4SZdGtCYp4G-373" target="gXBRPpkTJ4SZdGtCYp4G-288" edge="1">
          <mxGeometry relative="1" as="geometry">
            <Array as="points">
              <mxPoint x="1034" y="615" />
            </Array>
          </mxGeometry>
        </mxCell>
        <mxCell id="gXBRPpkTJ4SZdGtCYp4G-365" value="This is the alternative option when logged ing" style="rounded=0;whiteSpace=wrap;html=1;sketch=1;curveFitting=1;jiggle=2;fillColor=#ffff88;strokeColor=#36393d;fontColor=#FFFFFF;movable=0;resizable=0;rotatable=0;deletable=0;editable=0;locked=1;connectable=0;" parent="1" vertex="1">
          <mxGeometry x="1280" y="490" width="160" height="70" as="geometry" />
        </mxCell>
        <mxCell id="gXBRPpkTJ4SZdGtCYp4G-364" style="edgeStyle=orthogonalEdgeStyle;rounded=0;orthogonalLoop=1;jettySize=auto;html=1;entryX=0;entryY=0.5;entryDx=0;entryDy=0;movable=0;resizable=0;rotatable=0;deletable=0;editable=0;locked=1;connectable=0;" parent="1" source="gXBRPpkTJ4SZdGtCYp4G-363" target="gXBRPpkTJ4SZdGtCYp4G-365" edge="1">
          <mxGeometry relative="1" as="geometry">
            <mxPoint x="1290" y="520" as="targetPoint" />
          </mxGeometry>
        </mxCell>
        <mxCell id="gXBRPpkTJ4SZdGtCYp4G-200" value="Go to movie action" style="strokeWidth=1;shadow=0;dashed=0;align=center;html=1;shape=mxgraph.mockup.buttons.button;strokeColor=#666666;fontColor=#ffffff;mainText=;buttonStyle=round;fontSize=17;fontStyle=1;fillColor=#008cff;whiteSpace=wrap;movable=0;resizable=0;rotatable=0;deletable=0;editable=0;locked=1;connectable=0;" parent="1" vertex="1">
          <mxGeometry x="1290" y="890" width="230" height="80" as="geometry" />
        </mxCell>
        <mxCell id="gXBRPpkTJ4SZdGtCYp4G-383" value="This has a transparent effect" style="whiteSpace=wrap;html=1;fillColor=#fff2cc;strokeColor=#d6b656;shadow=0;sketch=1;curveFitting=1;jiggle=2;movable=0;resizable=0;rotatable=0;deletable=0;editable=0;locked=1;connectable=0;" parent="1" vertex="1">
          <mxGeometry x="2540" y="1110" width="220" height="110" as="geometry" />
        </mxCell>
        <mxCell id="gXBRPpkTJ4SZdGtCYp4G-381" style="edgeStyle=orthogonalEdgeStyle;rounded=0;orthogonalLoop=1;jettySize=auto;html=1;entryX=0;entryY=0.5;entryDx=0;entryDy=0;movable=0;resizable=0;rotatable=0;deletable=0;editable=0;locked=1;connectable=0;" parent="1" source="gXBRPpkTJ4SZdGtCYp4G-272" edge="1">
          <mxGeometry relative="1" as="geometry">
            <mxPoint x="2540" y="1183" as="targetPoint" />
          </mxGeometry>
        </mxCell>
        <mxCell id="gXBRPpkTJ4SZdGtCYp4G-261" value="" style="rounded=0;whiteSpace=wrap;html=1;movable=0;resizable=0;rotatable=0;deletable=0;editable=0;locked=1;connectable=0;" parent="1" vertex="1">
          <mxGeometry x="1710" y="1974" width="750" height="370" as="geometry" />
        </mxCell>
        <mxCell id="gXBRPpkTJ4SZdGtCYp4G-262" value="" style="whiteSpace=wrap;html=1;fillColor=light-dark(#FFFFFF,#000066);movable=0;resizable=0;rotatable=0;deletable=0;editable=0;locked=1;connectable=0;" parent="1" vertex="1">
          <mxGeometry x="1796" y="1974" width="260" height="370" as="geometry" />
        </mxCell>
        <mxCell id="gXBRPpkTJ4SZdGtCYp4G-263" value="" style="whiteSpace=wrap;html=1;fillColor=light-dark(#FFFFFF,#000066);movable=0;resizable=0;rotatable=0;deletable=0;editable=0;locked=1;connectable=0;" parent="1" vertex="1">
          <mxGeometry x="2108" y="1974" width="260" height="370" as="geometry" />
        </mxCell>
        <mxCell id="gXBRPpkTJ4SZdGtCYp4G-265" value="" style="shape=step;perimeter=stepPerimeter;whiteSpace=wrap;html=1;fixedSize=1;rotation=0;direction=west;size=20;fillColor=light-dark(#FFFFFF,#FF2828);movable=0;resizable=0;rotatable=0;deletable=0;editable=0;locked=1;connectable=0;" parent="1" vertex="1">
          <mxGeometry x="1730" y="2134" width="30" height="40" as="geometry" />
        </mxCell>
        <mxCell id="gXBRPpkTJ4SZdGtCYp4G-266" value="" style="shape=step;perimeter=stepPerimeter;whiteSpace=wrap;html=1;fixedSize=1;rotation=0;direction=east;size=20;fillColor=light-dark(#FFFFFF,#FF2828);movable=0;resizable=0;rotatable=0;deletable=0;editable=0;locked=1;connectable=0;" parent="1" vertex="1">
          <mxGeometry x="2400" y="2134" width="30" height="40" as="geometry" />
        </mxCell>
        <mxCell id="gXBRPpkTJ4SZdGtCYp4G-267" value="" style="html=1;verticalLabelPosition=bottom;align=center;labelBackgroundColor=#ffffff;verticalAlign=top;strokeWidth=2;strokeColor=#0080F0;shadow=0;dashed=0;shape=mxgraph.ios7.icons.video_conversation;fontSize=13;fontColor=#0066CC;movable=0;resizable=0;rotatable=0;deletable=0;editable=0;locked=1;connectable=0;" parent="1" vertex="1">
          <mxGeometry x="1856.5" y="2109" width="139" height="90" as="geometry" />
        </mxCell>
        <mxCell id="gXBRPpkTJ4SZdGtCYp4G-269" value="" style="html=1;verticalLabelPosition=bottom;align=center;labelBackgroundColor=#ffffff;verticalAlign=top;strokeWidth=2;strokeColor=#0080F0;shadow=0;dashed=0;shape=mxgraph.ios7.icons.video_conversation;fontSize=13;fontColor=#0066CC;movable=0;resizable=0;rotatable=0;deletable=0;editable=0;locked=1;connectable=0;" parent="1" vertex="1">
          <mxGeometry x="2168.5" y="2114" width="139" height="90" as="geometry" />
        </mxCell>
        <mxCell id="CcM8Ff5WYLCsAASZxkpC-3" value="option for small view" style="whiteSpace=wrap;html=1;sketch=1;hachureGap=4;jiggle=2;curveFitting=1;fontFamily=Architects Daughter;fontSource=https%3A%2F%2Ffonts.googleapis.com%2Fcss%3Ffamily%3DArchitects%2BDaughter;fontSize=24;" parent="1" vertex="1">
          <mxGeometry x="640" y="2893" width="210" height="107" as="geometry" />
        </mxCell>
        <mxCell id="CcM8Ff5WYLCsAASZxkpC-2" style="edgeStyle=orthogonalEdgeStyle;rounded=0;sketch=1;hachureGap=4;jiggle=2;curveFitting=1;orthogonalLoop=1;jettySize=auto;html=1;fontFamily=Architects Daughter;fontSource=https%3A%2F%2Ffonts.googleapis.com%2Fcss%3Ffamily%3DArchitects%2BDaughter;entryX=0.485;entryY=0.007;entryDx=0;entryDy=0;entryPerimeter=0;" parent="1" source="CcM8Ff5WYLCsAASZxkpC-1" target="CcM8Ff5WYLCsAASZxkpC-3" edge="1">
          <mxGeometry relative="1" as="geometry">
            <mxPoint x="670" y="2816.305563038793" as="targetPoint" />
          </mxGeometry>
        </mxCell>
        <mxCell id="CcM8Ff5WYLCsAASZxkpC-4" value="&lt;div&gt;&lt;br&gt;&lt;/div&gt;&lt;div&gt;&lt;br&gt;&lt;/div&gt;" style="edgeLabel;html=1;align=center;verticalAlign=middle;resizable=0;points=[];sketch=1;hachureGap=4;jiggle=2;curveFitting=1;fontFamily=Architects Daughter;fontSource=https%3A%2F%2Ffonts.googleapis.com%2Fcss%3Ffamily%3DArchitects%2BDaughter;" parent="CcM8Ff5WYLCsAASZxkpC-2" vertex="1" connectable="0">
          <mxGeometry x="0.7171" y="3" relative="1" as="geometry">
            <mxPoint y="-1" as="offset" />
          </mxGeometry>
        </mxCell>
        <mxCell id="gXBRPpkTJ4SZdGtCYp4G-375" value="" style="edgeStyle=orthogonalEdgeStyle;rounded=0;orthogonalLoop=1;jettySize=auto;html=1;entryX=0;entryY=0.5;entryDx=0;entryDy=0;movable=1;resizable=1;rotatable=1;deletable=1;editable=1;locked=0;connectable=1;" parent="1" source="8962rQQDY3VNNf6We3Pp-10" target="gXBRPpkTJ4SZdGtCYp4G-373" edge="1">
          <mxGeometry relative="1" as="geometry">
            <mxPoint x="1034" y="530" as="sourcePoint" />
            <mxPoint x="1280" y="615" as="targetPoint" />
            <Array as="points" />
          </mxGeometry>
        </mxCell>
        <mxCell id="gXBRPpkTJ4SZdGtCYp4G-373" value="Horror" style="rounded=1;fillColor=#F1F2F4;strokeColor=none;html=1;fontColor=#596780;align=left;fontSize=10;spacingLeft=10;movable=1;resizable=1;rotatable=1;deletable=1;editable=1;locked=0;connectable=1;" parent="1" vertex="1">
          <mxGeometry x="989" y="550" width="90" height="33" as="geometry" />
        </mxCell>
      </root>
    </mxGraphModel>
  </diagram>
</mxfile>
